<svg width="25" height="25" viewBox="0 0 25 25" fill="none" xmlns="http://www.w3.org/2000/svg">
<path d="M14.3955 2.44873H6.39551C5.86507 2.44873 5.35637 2.65944 4.98129 3.03452C4.60622 3.40959 4.39551 3.9183 4.39551 4.44873V20.4487C4.39551 20.9792 4.60622 21.4879 4.98129 21.8629C5.35637 22.238 5.86507 22.4487 6.39551 22.4487H18.3955C18.9259 22.4487 19.4346 22.238 19.8097 21.8629C20.1848 21.4879 20.3955 20.9792 20.3955 20.4487V8.44873L14.3955 2.44873Z" stroke="black" stroke-width="2" stroke-linecap="round" stroke-linejoin="round"/>
<path d="M14.3955 2.44873V8.44873H20.3955" stroke="black" stroke-width="2" stroke-linecap="round" stroke-linejoin="round"/>
<path d="M16.3955 13.4487H8.39551" stroke="black" stroke-width="2" stroke-linecap="round" stroke-linejoin="round"/>
<path d="M16.3955 17.4487H8.39551" stroke="black" stroke-width="2" stroke-linecap="round" stroke-linejoin="round"/>
<path d="M10.3955 9.44873H9.39551H8.39551" stroke="black" stroke-width="2" stroke-linecap="round" stroke-linejoin="round"/>
</svg>
