<svg width="25" height="25" viewBox="0 0 25 25" fill="none" xmlns="http://www.w3.org/2000/svg">
<path d="M3.7832 6.09314H5.7832H21.7832" stroke="black" stroke-width="2" stroke-linecap="round" stroke-linejoin="round"/>
<path d="M19.7832 6.09314V20.0931C19.7832 20.6236 19.5725 21.1323 19.1974 21.5074C18.8223 21.8824 18.3136 22.0931 17.7832 22.0931H7.7832C7.25277 22.0931 6.74406 21.8824 6.36899 21.5074C5.99392 21.1323 5.7832 20.6236 5.7832 20.0931V6.09314M8.7832 6.09314V4.09314C8.7832 3.56271 8.99392 3.054 9.36899 2.67893C9.74406 2.30385 10.2528 2.09314 10.7832 2.09314H14.7832C15.3136 2.09314 15.8223 2.30385 16.1974 2.67893C16.5725 3.054 16.7832 3.56271 16.7832 4.09314V6.09314" stroke="black" stroke-width="2" stroke-linecap="round" stroke-linejoin="round"/>
<path d="M10.7832 11.0931V17.0931" stroke="black" stroke-width="2" stroke-linecap="round" stroke-linejoin="round"/>
<path d="M14.7832 11.0931V17.0931" stroke="black" stroke-width="2" stroke-linecap="round" stroke-linejoin="round"/>
</svg>
